# xmcd CD database file
#
# Track frame offsets:
#	150
#	14059
#	30003
#	47881
#	77422
#	95061
#	132200
#	158879
#	183407
#	199359
#	215391
#	242479
#	256695
#
# Disc length: 3476 seconds
#
# Revision: 2
# Processed by: cddbd v1.5PL3 Copyright (c) Steve Scherf et al.
# Submitted via: CDex 1.51
#
DISCID=a50d920d
DTITLE=Jimmy Thackery and the drivers - Switching Gears
DYEAR=1998
DGENRE=Rock
TTITLE0=I've Got Other Plans
TTITLE1=Take Me With You When You Go
TTITLE2=Dancing on Broken Glass
TTITLE3=It's My Own Fault
TTITLE4=Monkey
TTITLE5=Roy's Blues
TTITLE6=I Wouldn't Change a Thing
TTITLE7=Write If You Find Love
TTITLE8=I Got To Be Strong
TTITLE9=Gin in the Morning
TTITLE10=Still Raining, Still Dreaming
TTITLE11=If This Is Love
TTITLE12=Still Raining, Still Dreaming (Reprise)
EXTD=YEAR: 1998
EXTT0=
EXTT1=
EXTT2=
EXTT3=
EXTT4=
EXTT5=
EXTT6=
EXTT7=
EXTT8=
EXTT9=
EXTT10=
EXTT11=
EXTT12=
PLAYORDER=
